# AST/ASF file generated using VICON BodyLanguage
# -----------------------------------------------
:version 1.10
:name VICON
:units
  mass 1.0
  length 0.45
  angle deg
:documentation
   .ast/.asf automatically generated from VICON data using
   VICON BodyBuilder and BodyLanguage model FoxedUp or BRILLIANT.MOD
:root
   order TX TY TZ RX RY RZ
   axis XYZ
   position 0 0 0  
   orientation 0 0 0 
:bonedata
  begin
     id 1 
     name lhipjoint
     direction 0.677091 -0.635792 0.370561 
     length 2.74323 
     axis 0 0 0  XYZ
  end
  begin
     id 2 
     name lfemur
     direction 0.34202 -0.939693 0  
     length 7.44995  
     axis 0 0 20  XYZ
    dof rx ry rz
    limits (-160.0 20.0)
           (-70.0 70.0)
           (-60.0 70.0)
  end
  begin
     id 3 
     name ltibia
     direction 0.34202 -0.939693 0   
     length 7.34467   
     axis 0 0 20   XYZ
    dof rx
    limits (-10.0 170.0)
  end
  begin
     id 4 
     name lfoot
     direction 0.101953 -0.280114 0.954537   
     length 1.72105   
     axis -90 7.62852e-016 20   XYZ
    dof rx rz
    limits (-45.0 90.0)
           (-70.0 20.0)
  end
  begin
     id 5 
     name ltoes
     direction 1.53537e-011 -4.21915e-011 1   
     length 0.865872   
     axis -90 7.62852e-016 20   XYZ
    dof rx
    limits (-90.0 20.0)
  end
  begin
     id 6 
     name rhipjoint
     direction -0.695735 -0.620586 0.361699   
     length 2.81045  
     axis 0 0 0  XYZ 
  end
  begin
     id 7 
     name rfemur
     direction -0.34202 -0.939693 0   
     length 7.29387   
     axis 0 0 -20   XYZ
    dof rx ry rz
    limits (-160.0 20.0)
           (-70.0 70.0)
           (-70.0 60.0)
  end
  begin
     id 8 
     name rtibia
     direction -0.34202 -0.939693 0   
     length 7.44935   
     axis 0 0 -20   XYZ
    dof rx
    limits (-10.0 170.0)
 end
 begin
     id 9 
     name rfoot
     direction -0.104163 -0.286184 0.952496   
     length 1.77731  
     axis -90 -7.62852e-016 -20   XYZ
    dof rx rz
    limits (-45.0 90.0)
           (-20.0 70.0)
  end
  begin
     id 10 
     name rtoes
     direction -1.5355e-011 -4.21888e-011 1   
     length 0.892424   
     axis -90 -7.62852e-016 -20   XYZ
    dof rx
    limits (-90.0 20.0)
  end
  begin
     id 11 
     name lowerback
     direction 0.0100202 0.997226 -0.0737589   
     length 2.16892   
     axis 0 0 0   XYZ
    dof rx ry rz
    limits (-20.0 45.0)
           (-30.0 30.0)
           (-30.0 30.0)
  end
  begin
     id 12 
     name upperback
     direction 0.00432398 0.999988 -0.00215019   
     length 2.17326   
     axis 0 0 0   XYZ
    dof rx ry rz
    limits (-20.0 45.0)
           (-30.0 30.0)
           (-30.0 30.0)
  end
  begin
     id 13 
     name thorax
     direction -0.00195047 0.999485 0.0320434   
     length 2.18139   
     axis 0 0 0   XYZ
    dof rx ry rz
    limits (-20.0 45.0)
           (-30.0 30.0)
           (-30.0 30.0)
  end
  begin
     id 14 
     name lowerneck
     direction 0.00782762 0.986241 0.165128   
     length 1.88415   
     axis 0 0 0   XYZ
    dof rx ry rz
    limits (-20.0 45.0)
           (-30.0 30.0)
           (-30.0 30.0)
  end
  begin
     id 15 
     name upperneck
     direction 0.00988667 0.981098 -0.193258   
     length 1.9242   
     axis 0 0 0   XYZ
    dof rx ry rz
    limits (-20.0 45.0)
           (-30.0 30.0)
           (-30.0 30.0)
  end
  begin
     id 16
     name head
     direction 0.00252199 0.996513 -0.0833958  
     length 1.93887  
     axis 0 0 0   XYZ
    dof rx ry rz
    limits (-20.0 45.0)
           (-30.0 30.0)
           (-30.0 30.0)
  end
  begin
     id 17 
     name lclavicle
     direction 0.929492 0.368193 -0.0218667  
     length 3.5955  
     axis 0 0 0   XYZ
    dof ry rz
    limits (-20.0 10.0)
           (0.0 20.0)
  end
  begin
     id 18 
     name lhumerus
     direction 1 -4.48972e-011 1.41911e-027   
     length 5.2795   
     axis 180 -30 -90   XYZ
    dof rx ry rz
    limits (-60.0 90.0)
           (-90.0 90.0)
           (-90.0 90.0)
  end
  begin
     id 19
     name lradius
     direction 1 -4.48963e-011 7.05772e-027   
     length 3.53504   
     axis 180 -30 -90   XYZ
    dof rx
    limits (-10.0 170.0)
  end
  begin
     id 20
     name lwrist
     direction 1 -4.48957e-011 9.54866e-027   
     length 1.76752   
     axis -7.69462e-015 90 90   XYZ
    dof ry
    limits (-180.0 0.0)
 end
  begin
     id 21 
     name lhand
     direction 1 -4.48979e-011 1.90973e-026   
     length 0.667948   
     axis -1.21857e-014 90 90   XYZ
    dof rx rz
    limits (-90.0 90.0)
           (-45.0 45.0)
  end
  begin
     id 22 
     name lfingers
     direction 1 -4.48987e-011 3.81946e-026   
     length 0.538517   
     axis -2.43714e-014 90 90   XYZ
    dof rx
    limits (0.0 90.0)
  end
  begin
     id 23
     name lthumb
     direction 0.707107 -6.34962e-011 0.707107   
     length 0.773206   
     axis -90 45 2.85299e-015   XYZ
    dof rx rz
    limits (-45.0 45.0)
           (-45.0 45.0)
  end
  begin
     id 24 
     name rclavicle
     direction -0.898763 0.414256 -0.143584   
     length 3.5176  
     axis 0 0 0   XYZ 
    dof ry rz
    limits (-10.0 20.0)
           (-20.0 0.0)
  end
  begin
     id 25 
     name rhumerus
     direction -1 -4.48971e-011 1.129e-027  
     length 5.25035   
     axis 180 30 90   XYZ
    dof rx ry rz
    limits (-90.0 60.0)
           (-90.0 90.0)
           (-90.0 90.0)
  end
  begin
     id 26 
     name rradius
     direction -1 -4.48955e-011 6.34664e-027   
     length 3.58884   
     axis 180 30 90   XYZ
    dof rx
    limits (-10.0 170.0)
  end
  begin
     id 27 
     name rwrist
     direction -1 -4.48966e-011 9.54866e-027   
     length 1.79442   
     axis -7.69462e-015 -90 -90   XYZ
    dof ry
    limits (-180.0 0.0)
  end
  begin
     id 28
     name rhand
     direction -1 -4.48973e-011 1.90973e-026   
     length 0.779235   
     axis -1.21857e-014 -90 -90   XYZ
    dof rx rz
    limits (-90.0 90.0)
           (-45.0 45.0)
  end
  begin
     id 29
     name rfingers
     direction -1 -4.48984e-011 3.81946e-026   
     length 0.62824   
     axis -2.43714e-014 -90 -90   XYZ
    dof rx
    limits (0.0 90.0)
  end
  begin
     id 30
     name rthumb
     direction -0.707107 -6.34968e-011 0.707107   
     length 0.90203   
     axis -90 -45 -2.85299e-015   XYZ
    dof rx rz
    limits (-45.0 45.0)
           (-45.0 45.0)
  end
:hierarchy
  begin
    root lhipjoint rhipjoint lowerback
    lhipjoint lfemur
    lfemur ltibia
    ltibia lfoot
    lfoot ltoes
    rhipjoint rfemur
    rfemur rtibia
    rtibia rfoot
    rfoot rtoes
    lowerback upperback
    upperback thorax
    thorax lowerneck lclavicle rclavicle
    lowerneck upperneck
    upperneck head
    lclavicle lhumerus
    lhumerus lradius
    lradius lwrist
    lwrist lhand lthumb
    lhand lfingers
    rclavicle rhumerus
    rhumerus rradius
    rradius rwrist
    rwrist rhand rthumb
    rhand rfingers
  end

#!OML:ASF I:\Random Stuff\random\construction\7_22_03\Session 2\subj1.ASF
:FULLY-SPECIFIED
:DEGREES
98
root 6.40334 17.5244 -11.6606 4.55752 1.00124 -4.92996
lowerback 3.70858 0.0360597 0.00954266
upperback -0.965772 0.0783886 1.00068
thorax -3.07383 0.0484469 1.01872
lowerneck -17.5571 -10.1059 -9.81596
upperneck 35.3192 -16.1976 10.3603
head 17.8604 -6.62302 2.9344
rclavicle 5.04416e-015 3.97569e-016
rhumerus -30.4365 2.23004 -85.8677
rradius 29.232
rwrist 1.74606
rhand -17.3331 19.9444
rfingers 7.12502
rthumb 8.91391 -9.84734
lclavicle 5.04416e-015 3.97569e-016
lhumerus -34.1455 -5.11291 88.5604
lradius 34.5046
lwrist 29.1373
lhand -18.8977 58.5664
lfingers 7.12502
lthumb 7.40394 88.4169
rfemur 4.47747 -2.01389 22.7285
rtibia 1.43125e-014
rfoot -8.7827 -12.4568
rtoes 10.764
lfemur -13.2175 -6.70195 -11.7043
ltibia 28.0197
lfoot -18.2637 6.70244
ltoes -28.324
99
root 6.42103 17.5292 -11.678 4.74623 1.07027 -4.98351
lowerback 3.71729 -0.131385 -0.15794
upperback -0.95486 -0.148659 1.15616
thorax -3.06277 -0.0601577 1.28708
lowerneck -17.1141 -10.2741 -10.2647
upperneck 35.2647 -16.4189 10.5562
head 17.8386 -6.77088 3.06177
rclavicle -2.09469e-014 0
rhumerus -30.7115 3.17085 -85.9629
rradius 30.0568
rwrist 1.94508
rhand -17.173 19.76
rfingers 7.12502
rthumb 9.06846 -10.0251
lclavicle -2.09469e-014 0
lhumerus -34.2667 -4.7778 88.6288
lradius 34.6143
lwrist 29.2887
lhand -19.2327 58.6365
lfingers 7.12502
lthumb 7.08055 88.4981
rfemur 4.22501 -2.067 22.7179
rtibia -7.95139e-015
rfoot -8.79486 -12.3617
rtoes 11.0378
lfemur -13.5784 -6.57833 -11.6747
ltibia 28.1292
lfoot -18.1818 6.61146
ltoes -28.6701
100
root 6.43551 17.5326 -11.6943 4.92186 1.09425 -4.97543
lowerback 3.77101 -0.303025 -0.466403
upperback -0.953423 -0.387813 1.32119
thorax -3.08298 -0.171952 1.64578
lowerneck -16.7492 -10.3968 -10.6425
upperneck 35.2312 -16.5669 10.6856
head 17.819 -6.88451 3.16192
rclavicle 1.51076e-014 1.35174e-014
rhumerus -31.1392 4.60968 -86.2024
rradius 31.0634
rwrist 1.62575
rhand -16.8408 20.3746
rfingers 7.12502
rthumb 9.38894 -9.39633
lclavicle 1.51076e-014 1.35174e-014
lhumerus -34.3946 -4.28267 88.6351
lradius 34.6723
lwrist 29.267
lhand -19.1726 58.5905
lfingers 7.12502
lthumb 7.1385 88.4501
rfemur 3.98756 -2.08141 22.6543
rtibia -6.36111e-015
rfoot -8.80644 -12.3136
rtoes 11.4573
lfemur -13.9028 -6.36108 -11.7106
ltibia 28.2245
lfoot -18.1007 6.42747
ltoes -28.8909
101
root 6.4489 17.5357 -11.7081 5.04164 1.0742 -5.03417
lowerback 3.85254 -0.385822 -0.637966
upperback -0.913282 -0.504624 1.40405
thorax -3.08173 -0.226426 1.83552
lowerneck -16.3953 -10.5217 -10.7716
upperneck 35.0955 -16.7454 10.7247
head 17.706 -6.99027 3.16887
rclavicle -2.09718e-014 1.98785e-015
rhumerus -31.659 5.70215 -86.3961
rradius 32.3598
rwrist 1.93962
rhand -16.608 19.8462
rfingers 7.12502
rthumb 9.61356 -9.91449
lclavicle -2.09718e-014 1.98785e-015
lhumerus -34.4077 -4.00704 88.6017
lradius 34.6298
lwrist 29.1205
lhand -18.6575 58.4928
lfingers 7.12502
lthumb 7.6357 88.3349
rfemur 3.82552 -2.04956 22.6613
rtibia -1.59028e-015
rfoot -8.8334 -12.2267
rtoes 12.0009
lfemur -14.1216 -6.24185 -11.6804
ltibia 28.29
lfoot -18.0646 6.31106
ltoes -28.622
102
root 6.4647 17.5392 -11.7214 5.16622 1.0451 -5.10268
lowerback 3.90743 -0.369345 -0.689074
upperback -0.852278 -0.486176 1.38695
thorax -3.05013 -0.217027 1.84551
lowerneck -16.1238 -10.678 -10.8443
upperneck 35.07 -17.0379 10.8441
head 17.7015 -7.11708 3.17658
rclavicle 1.1281e-014 -7.95139e-015
rhumerus -32.2349 6.18395 -86.4867
rradius 33.8944
rwrist 2.77823
rhand -15.9402 20.3533
rfingers 7.12502
rthumb 10.2579 -9.37657
lclavicle 1.1281e-014 -7.95139e-015
lhumerus -34.3534 -4.16613 88.6059
lradius 34.576
lwrist 29.0755
lhand -19.568 58.6102
lfingers 7.12502
lthumb 6.75687 88.4824
rfemur 3.6625 -2.00776 22.6586
rtibia -1.11319e-014
rfoot -8.87053 -12.1017
rtoes 12.479
lfemur -14.3155 -6.31564 -11.6408
ltibia 28.3293
lfoot -18.0652 6.31718
ltoes -27.6647
103
root 6.48144 17.5435 -11.7349 5.32798 1.0167 -5.14066
lowerback 3.93473 -0.300916 -0.753424
upperback -0.795473 -0.400435 1.32213
thorax -3.01009 -0.174346 1.80918
lowerneck -15.8847 -10.8815 -10.7429
upperneck 35.0583 -17.4247 10.876
head 17.6931 -7.26784 3.09246
rclavicle -6.70898e-015 -1.19271e-015
rhumerus -32.8425 6.5548 -86.6682
rradius 35.508
rwrist 2.97497
rhand -15.8521 20.9877
rfingers 7.12502
rthumb 10.3428 -8.73798
lclavicle -6.70898e-015 -1.19271e-015
lhumerus -34.2863 -4.42412 88.5678
lradius 34.5634
lwrist 28.9918
lhand -18.7041 58.5517
lfingers 7.12502
lthumb 7.59077 88.3955
rfemur 3.44434 -1.96732 22.6426
rtibia -1.27222e-014
rfoot -8.91771 -12.126
rtoes 13.0684
lfemur -14.5482 -6.37292 -11.6308
ltibia 28.3617
lfoot -18.0447 6.34174
ltoes -26.984
104
root 6.49851 17.5478 -11.7476 5.49658 0.954914 -5.14424
lowerback 3.96852 -0.253866 -0.86074
upperback -0.759261 -0.345141 1.26154
thorax -2.99356 -0.145774 1.80352
lowerneck -15.5782 -11.0115 -10.6444
upperneck 34.9586 -17.6741 10.8906
head 17.5925 -7.37249 3.03539
rclavicle 4.72114e-015 -1.63003e-014
rhumerus -33.5109 7.11518 -86.9316
rradius 37.2522
rwrist 2.57979
rhand -16.1374 21.0375
rfingers 7.12502
rthumb 10.0676 -8.70173
lclavicle 4.72114e-015 -1.63003e-014
lhumerus -34.2633 -4.50732 88.4533
lradius 34.5916
lwrist 29.0241
lhand -19.2792 58.4972
lfingers 7.12502
lthumb 7.03567 88.3602
rfemur 3.2113 -1.89644 22.6072
rtibia 1.11319e-014
rfoot -8.95733 -12.2406
rtoes 13.7699
lfemur -14.7825 -6.29773 -11.6679
ltibia 28.4027
lfoot -18.0158 6.38513
ltoes -27.1065
105
root 6.51646 17.5513 -11.7599 5.6732 0.851442 -5.17617
lowerback 4.00517 -0.233214 -0.922795
upperback -0.739191 -0.322206 1.21914
thorax -2.99427 -0.13375 1.79338
lowerneck -15.321 -11.0706 -10.8395
upperneck 34.9694 -17.8147 11.098
head 17.6186 -7.44281 3.14047
rclavicle -3.72721e-015 -3.57812e-015
rhumerus -34.239 7.79661 -87.205
rradius 39.1905
rwrist 1.90946
rhand -16.2568 20.915
rfingers 7.12502
rthumb 9.95241 -8.82974
lclavicle -3.72721e-015 -3.57812e-015
lhumerus -34.2916 -4.5303 88.3234
lradius 34.6278
lwrist 29.1949
lhand -18.6523 58.671
lfingers 7.12502
lthumb 7.64079 88.513
rfemur 2.97796 -1.78168 22.5702
rtibia 7.95139e-015
rfoot -8.99193 -12.1848
rtoes 14.3183
lfemur -15.0096 -6.20582 -11.6736
ltibia 28.4435
lfoot -18.0313 6.41329
ltoes -26.9412
106
root 6.53473 17.5542 -11.7704 5.82601 0.768775 -5.25537
lowerback 4.06172 -0.218637 -0.94095
upperback -0.714733 -0.304692 1.19647
thorax -3.00156 -0.124997 1.77935
lowerneck -15.1894 -11.1961 -10.7342
upperneck 35.0497 -18.0075 10.9446
head 17.6232 -7.53139 3.01638
rclavicle 1.59525e-014 4.77083e-015
rhumerus -34.9451 8.43413 -87.4551
rradius 41.1225
rwrist 1.03564
rhand -16.7736 20.9724
rfingers 7.12502
rthumb 9.45378 -8.79557
lclavicle 1.59525e-014 4.77083e-015
lhumerus -34.3167 -4.42484 88.1856
lradius 34.6278
lwrist 29.2256
lhand -19.7115 58.7771
lfingers 7.12502
lthumb 6.61832 88.6537
rfemur 2.77996 -1.68448 22.579
rtibia -1.11319e-014
rfoot -9.04731 -12.1143
rtoes 14.827
lfemur -15.2043 -6.18844 -11.6284
ltibia 28.4665
lfoot -18.054 6.41731
ltoes -26.353
107
root 6.55505 17.5576 -11.7803 5.9274 0.720213 -5.28653
lowerback 4.19203 -0.209669 -1.00943
upperback -0.696187 -0.297841 1.16715
thorax -3.05588 -0.120318 1.78801
lowerneck -14.9739 -11.2065 -10.7261
upperneck 35.0257 -18.0205 10.9076
head 17.5505 -7.55298 3.00598
rclavicle 2.04251e-014 7.95139e-016
rhumerus -35.6475 8.88419 -87.6001
rradius 43.0273
rwrist 0.284487
rhand -17.4081 21.3296
rfingers 7.12502
rthumb 8.84153 -8.46519
lclavicle 2.04251e-014 7.95139e-016
lhumerus -34.374 -4.2985 88.0688
lradius 34.6276
lwrist 29.3469
lhand -20.6148 58.7999
lfingers 7.12502
lthumb 5.7463 88.702
rfemur 2.63957 -1.62865 22.5416
rtibia 2.06736e-014
rfoot -9.09781 -12.1349
rtoes 15.2785
lfemur -15.3544 -6.15279 -11.6607
ltibia 28.4852
lfoot -18.022 6.43559
ltoes -26.2449
108
root 6.57992 17.5629 -11.7902 6.08958 0.650023 -5.24817
lowerback 4.25938 -0.207746 -1.09766
upperback -0.705552 -0.302315 1.1015
thorax -3.10319 -0.121109 1.77075
lowerneck -14.6603 -11.1317 -10.9257
upperneck 34.9562 -17.8841 10.9956
head 17.4516 -7.53223 3.12493
rclavicle 1.14301e-015 0
rhumerus -36.3193 9.15751 -87.6738
rradius 44.9353
rwrist -0.203071
rhand -17.8168 21.7459
rfingers 7.12502
rthumb 8.44714 -8.06515
lclavicle 1.14301e-015 0
lhumerus -34.4851 -4.27981 87.9484
lradius 34.6644
lwrist 29.6748
lhand -20.9378 58.8796
lfingers 7.12502
lthumb 5.43439 88.7899
rfemur 2.43461 -1.5569 22.3988
rtibia -3.18055e-015
rfoot -9.0942 -12.0754
rtoes 15.522
lfemur -15.5573 -6.0996 -11.7897
ltibia 28.4947
lfoot -17.9434 6.5498
ltoes -26.6214
109
root 6.60626 17.5691 -11.7981 6.32262 0.565028 -5.24833
lowerback 4.20597 -0.233796 -1.11979
upperback -0.718769 -0.339839 1.0363
thorax -3.08552 -0.140057 1.7182
lowerneck -14.545 -11.0859 -10.7928
upperneck 35.0519 -17.7695 10.7398
head 17.3956 -7.50506 3.02447
rclavicle -6.60959e-015 -9.54166e-015
rhumerus -36.9033 9.45197 -87.7599
rradius 46.7955
rwrist -0.593942
rhand -18.407 22.1484
rfingers 7.12502
rthumb 7.87753 -7.68488
lclavicle -6.60959e-015 -9.54166e-015
lhumerus -34.5588 -4.03338 87.6891
lradius 34.6221
lwrist 29.6414
lhand -21.0258 58.8709
lfingers 7.12502
lthumb 5.34945 88.7834
rfemur 2.15104 -1.46406 22.2963
rtibia 1.59028e-015
rfoot -9.08792 -12.0134
rtoes 15.7961
lfemur -15.8046 -6.18433 -11.8568
ltibia 28.4859
lfoot -17.9064 6.72341
ltoes -26.3768
